<?xml version="1.0" encoding="UTF-8" standalone="no"?>
<!DOCTYPE svg PUBLIC "-//W3C//DTD SVG 1.1//EN" "http://www.w3.org/Graphics/SVG/1.1/DTD/svg11.dtd">
<svg width="100%" height="100%" viewBox="0 0 630 94" version="1.1" xmlns="http://www.w3.org/2000/svg" xmlns:xlink="http://www.w3.org/1999/xlink" style="fill-rule:evenodd;clip-rule:evenodd;stroke-linejoin:round;stroke-miterlimit:2;">
    <g id="Layer_x0020_1">
        <path d="M67.837,39.658L67.837,57.292C67.837,57.292 67.621,59.883 69.996,58.66C72.372,57.436 79.281,53.909 83.744,51.606C90.15,48.367 83.744,45.2 83.744,45.2C83.744,45.2 72.228,39.298 69.924,38.147C67.621,36.995 67.837,39.658 67.837,39.658ZM48.044,70.32C51.283,68.736 62.151,63.122 64.526,61.827C67.837,60.171 64.598,58.588 64.598,58.588L48.116,50.023C48.116,50.023 45.165,48.439 45.309,51.75C45.453,55.061 45.309,68.304 45.309,68.304C45.309,68.304 44.877,71.831 48.116,70.248L48.044,70.32ZM25.516,81.692C28.755,80.108 39.623,74.494 41.998,73.199C45.309,71.543 42.07,69.96 42.07,69.96L25.588,61.395C25.588,61.395 22.637,59.811 22.781,63.122C22.925,66.433 22.781,79.677 22.781,79.677C22.781,79.677 22.349,83.203 25.588,81.62L25.516,81.692ZM2.916,69.888C6.154,68.304 17.023,62.69 19.398,61.395C22.709,59.739 19.47,58.156 19.47,58.156L2.988,49.591C2.988,49.591 0.037,48.007 0.181,51.318C0.324,54.629 0.181,67.873 0.181,67.873C0.181,67.873 -0.251,71.399 2.988,69.816L2.916,69.888ZM25.516,58.588C28.755,57.004 39.623,51.39 41.998,50.095C45.309,48.439 42.07,46.856 42.07,46.856L25.588,38.291C25.588,38.291 22.637,36.707 22.781,40.018C22.925,43.329 22.781,56.573 22.781,56.573C22.781,56.573 22.277,60.099 25.588,58.516L25.516,58.588ZM48.044,46.64C51.283,45.056 62.151,39.442 64.526,38.147C67.837,36.491 64.598,34.908 64.598,34.908L48.116,26.343C48.116,26.343 45.165,24.759 45.309,28.07C45.453,31.381 45.309,44.625 45.309,44.625C45.309,44.625 44.877,48.151 48.116,46.568L48.044,46.64ZM2.916,47.072C6.154,45.488 17.023,39.874 19.398,38.579C22.709,36.923 19.47,35.34 19.47,35.34L2.988,26.775C2.988,26.775 0.037,25.191 0.181,28.502C0.324,31.813 0.181,45.056 0.181,45.056C0.181,45.056 -0.251,48.583 2.988,47L2.916,47.072ZM25.444,35.196C28.683,33.612 39.551,27.998 41.926,26.703C45.237,25.047 41.998,23.464 41.998,23.464L25.516,14.899C25.516,14.899 22.565,13.315 22.709,16.626C22.853,19.937 22.709,33.181 22.709,33.181C22.709,33.181 22.277,36.707 25.516,35.124L25.444,35.196ZM0.109,73.271L0.109,87.666C0.109,87.666 0.54,94.288 7.09,90.833C13.712,87.45 20.478,83.995 20.478,83.995C20.478,83.995 22.349,82.915 20.478,81.908C18.606,80.9 1.764,72.263 1.764,72.263C1.764,72.263 0.037,71.543 0.037,73.271L0.109,73.271ZM0.181,23.32L0.181,8.925C0.181,8.925 0.612,2.303 7.162,5.758C13.784,9.141 20.549,12.596 20.549,12.596C20.549,12.596 22.421,13.675 20.549,14.683C18.678,15.691 1.836,24.328 1.836,24.328C1.836,24.328 0.109,25.047 0.109,23.32L0.181,23.32Z" style="fill:url(#_Linear1);"/>
        <path d="M106.848,72.407C107.496,75.502 108.935,78.093 111.166,80.108C113.397,82.124 116.133,83.203 119.371,83.203C121.963,83.203 124.122,82.699 125.777,81.764C127.433,80.756 128.8,79.461 129.736,77.805C130.744,76.15 131.391,74.206 131.823,71.903C132.255,69.672 132.471,67.297 132.471,64.706L132.471,5.11L144.563,5.11L144.563,65.21C144.563,68.232 144.203,71.399 143.555,74.782C142.907,78.165 141.684,81.26 139.884,84.067C138.085,86.946 135.566,89.321 132.327,91.193C129.088,93.064 124.985,94 119.875,94C113.254,94 107.855,92.272 103.681,88.889C99.506,85.435 96.771,81.044 95.476,75.646L106.776,72.479L106.848,72.407Z" style="fill:url(#_Linear2);"/>
        <path d="M197.608,91.768C197.465,90.329 197.321,88.673 197.249,86.802C197.177,84.931 197.105,83.419 197.105,82.196L196.889,82.196C195.449,85.291 192.93,87.954 189.475,90.113C186.02,92.272 182.134,93.352 177.887,93.352C174.145,93.352 170.906,92.704 168.171,91.48C165.436,90.257 163.204,88.529 161.405,86.37C159.678,84.211 158.31,81.692 157.518,78.813C156.655,75.934 156.223,72.911 156.223,69.6L156.223,33.612L167.739,33.612L167.739,65.713C167.739,68.089 167.955,70.32 168.315,72.479C168.674,74.638 169.322,76.51 170.33,78.165C171.338,79.82 172.633,81.116 174.36,82.052C176.088,83.059 178.247,83.491 180.982,83.491C185.661,83.491 189.403,81.764 192.282,78.309C195.161,74.854 196.601,70.176 196.601,64.418L196.601,33.54L208.117,33.54L208.117,79.101C208.117,80.684 208.189,82.628 208.261,85.075C208.333,87.522 208.477,89.681 208.621,91.552L197.752,91.552L197.608,91.768Z" style="fill:url(#_Linear3);"/>
        <path d="M253.245,48.439C251.95,46.352 250.078,44.553 247.703,43.257C245.328,41.89 242.665,41.242 239.714,41.242C238.418,41.242 237.123,41.386 235.827,41.674C234.532,41.962 233.38,42.393 232.372,43.041C231.365,43.689 230.501,44.409 229.925,45.344C229.278,46.28 228.99,47.432 228.99,48.799C228.99,51.246 230.069,53.046 232.301,54.269C234.532,55.421 237.843,56.501 242.233,57.508C245.04,58.156 247.559,58.948 249.934,59.811C252.31,60.675 254.325,61.827 256.124,63.194C257.852,64.562 259.219,66.145 260.227,68.017C261.235,69.888 261.666,72.119 261.666,74.638C261.666,78.093 261.019,80.972 259.723,83.347C258.427,85.722 256.7,87.666 254.541,89.177C252.382,90.689 249.934,91.768 247.127,92.416C244.32,93.064 241.513,93.424 238.562,93.424C234.172,93.424 229.853,92.56 225.679,90.833C221.504,89.105 217.977,86.514 215.242,82.987L223.448,76.006C225.031,78.309 227.118,80.18 229.853,81.764C232.588,83.347 235.611,84.067 238.85,84.067C240.29,84.067 241.729,83.923 243.097,83.635C244.464,83.347 245.688,82.915 246.768,82.196C247.847,81.548 248.711,80.684 249.431,79.605C250.078,78.525 250.438,77.229 250.438,75.574C250.438,72.911 249.143,70.896 246.552,69.6C243.96,68.304 240.218,67.081 235.251,65.929C233.308,65.425 231.293,64.85 229.278,64.13C227.262,63.41 225.463,62.474 223.807,61.251C222.152,60.027 220.856,58.516 219.849,56.644C218.841,54.773 218.337,52.542 218.337,49.879C218.337,46.784 218.985,44.121 220.209,41.89C221.504,39.658 223.16,37.787 225.175,36.347C227.19,34.908 229.565,33.828 232.157,33.181C234.748,32.461 237.483,32.173 240.218,32.173C244.392,32.173 248.423,32.965 252.31,34.62C256.196,36.275 259.219,38.651 261.307,41.746L253.317,48.511L253.245,48.439Z" style="fill:url(#_Linear4);"/>
        <path d="M303.124,43.185L287.721,43.185L287.721,73.343C287.721,76.87 288.369,79.317 289.665,80.828C290.96,82.34 293.048,83.059 295.927,83.059C297.006,83.059 298.158,82.915 299.381,82.699C300.605,82.484 301.685,82.124 302.692,81.692L303.052,91.121C301.685,91.624 300.101,91.984 298.446,92.272C296.79,92.56 295.063,92.704 293.263,92.704C287.793,92.704 283.619,91.193 280.74,88.17C277.861,85.147 276.421,80.612 276.421,74.566L276.421,43.113L265.265,43.113L265.265,33.684L276.421,33.684L276.421,17.058L287.793,17.058L287.793,33.684L303.196,33.684L303.196,43.113L303.124,43.185Z" style="fill:url(#_Linear5);"/>
        <path d="M335.441,74.134L335.657,74.134L356.026,5.11L369.341,5.11L389.566,74.134L389.782,74.134L408.928,5.11L421.739,5.11L396.26,91.768L383.664,91.768L362.648,22.096L362.36,22.096L341.343,91.768L328.675,91.768L303.268,5.11L316.368,5.11L335.441,74.134Z" style="fill:url(#_Linear6);"/>
        <path d="M455.208,64.058C452.329,64.058 449.378,64.202 446.355,64.418C443.26,64.634 440.525,65.138 438.006,65.857C435.486,66.577 433.471,67.729 431.816,69.168C430.16,70.608 429.369,72.623 429.369,75.07C429.369,76.798 429.728,78.237 430.376,79.389C431.096,80.54 431.96,81.476 433.111,82.196C434.263,82.915 435.486,83.419 436.926,83.707C438.294,83.995 439.733,84.139 441.244,84.139C446.643,84.139 450.745,82.556 453.696,79.317C456.575,76.078 458.015,72.047 458.015,67.153L458.015,64.058L455.208,64.058ZM458.015,54.125C458.015,49.807 456.719,46.568 454.128,44.481C451.537,42.393 448.01,41.386 443.692,41.386C440.453,41.386 437.358,42.034 434.479,43.257C431.6,44.553 429.153,46.136 427.209,48.079L421.091,40.738C423.97,38.075 427.425,35.916 431.528,34.404C435.63,32.821 440.093,32.101 444.843,32.101C449.018,32.101 452.617,32.677 455.711,33.9C458.806,35.052 461.254,36.707 463.269,38.723C465.212,40.738 466.724,43.185 467.659,45.92C468.667,48.727 469.099,51.678 469.099,54.845L469.099,80.18C469.099,82.124 469.171,84.211 469.315,86.37C469.459,88.529 469.675,90.329 469.963,91.696L459.526,91.696C458.878,88.889 458.519,86.154 458.519,83.347L458.159,83.347C455.999,86.442 453.336,88.889 450.169,90.545C446.931,92.272 443.116,93.136 438.725,93.136C436.422,93.136 434.047,92.848 431.528,92.2C429.009,91.552 426.777,90.617 424.762,89.177C422.747,87.81 421.019,85.938 419.652,83.635C418.284,81.332 417.637,78.525 417.637,75.214C417.637,70.824 418.788,67.297 421.163,64.778C423.539,62.187 426.634,60.243 430.448,58.876C434.263,57.508 438.581,56.644 443.404,56.213C448.226,55.781 453.048,55.637 457.943,55.637L457.943,54.053L458.015,54.125Z" style="fill:url(#_Linear7);"/>
        <path d="M512.428,43.185L497.025,43.185L497.025,73.343C497.025,76.87 497.673,79.317 498.969,80.828C500.264,82.34 502.351,83.059 505.23,83.059C506.31,83.059 507.462,82.915 508.685,82.699C509.909,82.484 510.988,82.124 511.996,81.692L512.356,91.121C510.988,91.624 509.405,91.984 507.75,92.272C506.094,92.56 504.367,92.704 502.567,92.704C497.097,92.704 492.923,91.193 490.044,88.17C487.165,85.147 485.725,80.612 485.725,74.566L485.725,43.113L474.569,43.113L474.569,33.684L485.725,33.684L485.725,17.058L497.097,17.058L497.097,33.684L512.5,33.684L512.5,43.113L512.428,43.185Z" style="fill:url(#_Linear8);"/>
        <path d="M561.875,48.439C560.651,46.568 558.78,44.984 556.333,43.689C553.886,42.393 551.295,41.818 548.488,41.818C545.465,41.818 542.801,42.393 540.498,43.545C538.195,44.697 536.18,46.208 534.524,48.151C532.869,50.095 531.645,52.326 530.782,54.845C529.918,57.364 529.486,60.027 529.486,62.834C529.486,65.641 529.918,68.232 530.782,70.824C531.645,73.343 532.869,75.574 534.524,77.517C536.18,79.461 538.123,80.972 540.498,82.124C542.873,83.275 545.537,83.851 548.559,83.851C551.51,83.851 554.174,83.275 556.549,82.124C558.924,80.972 560.939,79.461 562.523,77.445L570.224,84.427C567.777,87.306 564.682,89.537 561.011,91.121C557.34,92.704 553.166,93.496 548.488,93.496C544.025,93.496 539.85,92.776 536.036,91.265C532.221,89.825 528.982,87.738 526.175,85.075C523.368,82.412 521.209,79.245 519.625,75.43C518.042,71.687 517.25,67.441 517.25,62.834C517.25,58.228 518.042,54.125 519.553,50.311C521.137,46.568 523.296,43.329 526.031,40.666C528.838,38.003 532.077,35.916 535.892,34.404C539.707,32.965 543.809,32.173 548.2,32.173C552.302,32.173 556.333,32.965 560.363,34.62C564.394,36.275 567.633,38.651 570.008,41.746L561.659,48.511L561.875,48.439Z" style="fill:url(#_Linear9);"/>
        <path d="M590.665,42.537C592.033,39.658 594.408,37.211 597.791,35.196C601.101,33.181 604.916,32.101 609.019,32.101C612.761,32.101 616,32.749 618.663,33.972C621.326,35.268 623.63,36.923 625.429,39.083C627.228,41.242 628.524,43.689 629.388,46.568C630.251,49.447 630.683,52.47 630.683,55.781L630.683,91.768L619.167,91.768L619.167,59.595C619.167,57.22 618.951,54.989 618.591,52.83C618.231,50.671 617.584,48.799 616.576,47.216C615.568,45.56 614.273,44.265 612.617,43.257C610.962,42.249 608.731,41.818 606.068,41.818C601.461,41.818 597.719,43.545 594.768,47C591.817,50.455 590.377,55.133 590.377,60.963L590.377,91.768L578.861,91.768L578.861,-0.792L590.377,-0.792L590.377,42.537L590.665,42.537Z" style="fill:url(#_Linear10);"/>
    </g>
    <defs>
        <linearGradient id="_Linear1" x1="0" y1="0" x2="1" y2="0" gradientUnits="userSpaceOnUse" gradientTransform="matrix(90.4043,0,0,90.4043,-0.334648,48.3293)"><stop offset="0" style="stop-color:rgb(249,211,110);stop-opacity:1"/><stop offset="0.06" style="stop-color:rgb(249,211,110);stop-opacity:1"/><stop offset="1" style="stop-color:rgb(225,186,65);stop-opacity:1"/></linearGradient>
        <linearGradient id="_Linear2" x1="0" y1="0" x2="1" y2="0" gradientUnits="userSpaceOnUse" gradientTransform="matrix(48.9734,0,0,48.9734,95.5879,49.5226)"><stop offset="0" style="stop-color:rgb(225,186,65);stop-opacity:1"/><stop offset="0.5" style="stop-color:rgb(249,211,110);stop-opacity:1"/><stop offset="1" style="stop-color:rgb(225,186,65);stop-opacity:1"/></linearGradient>
        <linearGradient id="_Linear3" x1="0" y1="0" x2="1" y2="0" gradientUnits="userSpaceOnUse" gradientTransform="matrix(52.2799,0,0,52.2799,156.225,63.5419)"><stop offset="0" style="stop-color:rgb(225,186,65);stop-opacity:1"/><stop offset="0.5" style="stop-color:rgb(249,211,110);stop-opacity:1"/><stop offset="1" style="stop-color:rgb(225,186,65);stop-opacity:1"/></linearGradient>
        <linearGradient id="_Linear4" x1="0" y1="0" x2="1" y2="0" gradientUnits="userSpaceOnUse" gradientTransform="matrix(46.5255,0,0,46.5255,215.175,62.746)"><stop offset="0" style="stop-color:rgb(225,186,65);stop-opacity:1"/><stop offset="0.5" style="stop-color:rgb(249,211,110);stop-opacity:1"/><stop offset="1" style="stop-color:rgb(225,186,65);stop-opacity:1"/></linearGradient>
        <linearGradient id="_Linear5" x1="0" y1="0" x2="1" y2="0" gradientUnits="userSpaceOnUse" gradientTransform="matrix(37.9554,0,0,37.9554,265.159,54.9094)"><stop offset="0" style="stop-color:rgb(225,186,65);stop-opacity:1"/><stop offset="0.5" style="stop-color:rgb(249,211,110);stop-opacity:1"/><stop offset="1" style="stop-color:rgb(225,186,65);stop-opacity:1"/></linearGradient>
        <linearGradient id="_Linear6" x1="0" y1="0" x2="1" y2="0" gradientUnits="userSpaceOnUse" gradientTransform="matrix(118.518,0,0,118.518,303.236,48.4217)"><stop offset="0" style="stop-color:rgb(225,186,65);stop-opacity:1"/><stop offset="0.5" style="stop-color:rgb(249,211,110);stop-opacity:1"/><stop offset="1" style="stop-color:rgb(225,186,65);stop-opacity:1"/></linearGradient>
        <linearGradient id="_Linear7" x1="0" y1="0" x2="1" y2="0" gradientUnits="userSpaceOnUse" gradientTransform="matrix(52.2799,0,0,52.2799,417.642,62.6844)"><stop offset="0" style="stop-color:rgb(225,186,65);stop-opacity:1"/><stop offset="0.5" style="stop-color:rgb(249,211,110);stop-opacity:1"/><stop offset="1" style="stop-color:rgb(225,186,65);stop-opacity:1"/></linearGradient>
        <linearGradient id="_Linear8" x1="0" y1="0" x2="1" y2="0" gradientUnits="userSpaceOnUse" gradientTransform="matrix(37.954,0,0,37.954,474.453,54.9094)"><stop offset="0" style="stop-color:rgb(225,186,65);stop-opacity:1"/><stop offset="0.5" style="stop-color:rgb(249,211,110);stop-opacity:1"/><stop offset="1" style="stop-color:rgb(225,186,65);stop-opacity:1"/></linearGradient>
        <linearGradient id="_Linear9" x1="0" y1="0" x2="1" y2="0" gradientUnits="userSpaceOnUse" gradientTransform="matrix(52.8931,0,0,52.8931,517.426,62.746)"><stop offset="0" style="stop-color:rgb(225,186,65);stop-opacity:1"/><stop offset="0.5" style="stop-color:rgb(249,211,110);stop-opacity:1"/><stop offset="1" style="stop-color:rgb(225,186,65);stop-opacity:1"/></linearGradient>
        <linearGradient id="_Linear10" x1="0" y1="0" x2="1" y2="0" gradientUnits="userSpaceOnUse" gradientTransform="matrix(51.7912,0,0,51.7912,578.888,45.4835)"><stop offset="0" style="stop-color:rgb(225,186,65);stop-opacity:1"/><stop offset="0.5" style="stop-color:rgb(249,211,110);stop-opacity:1"/><stop offset="1" style="stop-color:rgb(225,186,65);stop-opacity:1"/></linearGradient>
    </defs>
</svg>
